<svg xmlns="http://www.w3.org/2000/svg" x="0px" y="0px" width="791.994px" height="791.994px" viewBox="0 0 791.994 791.994"><title>credly</title>
<path fill="#777777" d="M395.997,0C177.294,0,0,177.294,0,395.997s177.294,395.997,395.997,395.997S791.994,614.7,791.994,395.997
	S614.7,0,395.997,0z M643.375,649.647c0,8.394-4.993,10.597-11.137,4.876l-225.14-211.189c-6.293-5.798-15.982-5.798-22.273,0
	L159.731,654.501c-6.119,5.745-11.136,3.518-11.136-4.877v-84.167c0.503-9.611,4.458-18.717,11.136-25.649l224.952-211.05
	c6.313-5.753,15.963-5.753,22.272,0l225.281,211.074c6.671,6.936,10.623,16.039,11.137,25.648L643.375,649.647L643.375,649.647z
	 M632.262,425.257L407.122,214.02c-6.31-5.753-15.964-5.753-22.271,0L159.756,425.257c-6.12,5.744-11.138,3.541-11.138-4.854
	v-84.167c0.498-9.62,4.453-18.736,11.138-25.672L384.685,99.398c6.288-5.809,15.985-5.809,22.272,0l225.305,211.167
	c6.675,6.942,10.629,16.054,11.137,25.672v84.166C643.398,428.798,638.404,431.001,632.262,425.257z"/>
</svg>
