<svg fill="#777" xmlns="http://www.w3.org/2000/svg" x="0px" y="0px" viewBox="0 0 1000 1000"><metadata> Svg Vector Icons : http://www.onlinewebfonts.com/icon </metadata><g><path d="M500,10C229.4,10,10,229.4,10,500c0,169.3,85.9,318.6,216.5,406.6C304.6,959.3,398.7,990,500,990c97,0,187.4-28.3,263.5-77C899.6,826,990,673.6,990,500C990,229.4,770.6,10,500,10L500,10z M499.2,949.4c-102.2,0-196.3-34-271.9-91.4C238,706.7,325,583.6,438.6,552.4c-58.3-24.1-99.3-81.5-99.3-148.5c0-88.7,71.9-160.7,160.7-160.7c88.7,0,160.6,71.9,160.6,160.7c0,68.6-43,126.9-103.5,150c112.5,33.9,197.6,158.2,206.3,309.8C689.2,917.5,598,949.4,499.2,949.4L499.2,949.4z"/></g></svg>
